<mxfile host="65bd71144e">
    <diagram id="Bvzng9j60u-1qUp4l6aM" name="Page-1">
        <mxGraphModel dx="1822" dy="533" grid="1" gridSize="10" guides="1" tooltips="1" connect="1" arrows="1" fold="1" page="1" pageScale="1" pageWidth="100" pageHeight="100" math="0" shadow="0">
            <root>
                <mxCell id="0"/>
                <mxCell id="1" parent="0"/>
                <mxCell id="9" value="" style="rounded=1;whiteSpace=wrap;html=1;strokeColor=none;fillColor=#f5f5f5;fontColor=#333333;" vertex="1" parent="1">
                    <mxGeometry x="-850" y="-100" width="700" height="230" as="geometry"/>
                </mxCell>
                <mxCell id="6" style="edgeStyle=none;html=1;exitX=1;exitY=0.5;exitDx=0;exitDy=0;entryX=0;entryY=0.5;entryDx=0;entryDy=0;fontFamily=仿宋;fontSize=14;fillColor=#fff2cc;strokeColor=#d6b656;" edge="1" parent="1" source="2" target="3">
                    <mxGeometry relative="1" as="geometry"/>
                </mxCell>
                <mxCell id="2" value="供应商CA信息申请" style="rounded=1;whiteSpace=wrap;html=1;fontFamily=仿宋;fontSize=14;fillColor=#fff2cc;strokeColor=#d6b656;" vertex="1" parent="1">
                    <mxGeometry x="-830" y="-50" width="120" height="60" as="geometry"/>
                </mxCell>
                <mxCell id="7" style="edgeStyle=orthogonalEdgeStyle;html=1;exitX=1;exitY=0.5;exitDx=0;exitDy=0;entryX=0;entryY=0.5;entryDx=0;entryDy=0;fontFamily=仿宋;fontSize=14;fillColor=#fff2cc;strokeColor=#d6b656;" edge="1" parent="1" source="3" target="5">
                    <mxGeometry relative="1" as="geometry"/>
                </mxCell>
                <mxCell id="3" value="运营平台审核" style="rounded=1;whiteSpace=wrap;html=1;fontFamily=仿宋;fontSize=14;fillColor=#fff2cc;strokeColor=#d6b656;" vertex="1" parent="1">
                    <mxGeometry x="-640" y="-50" width="120" height="60" as="geometry"/>
                </mxCell>
                <mxCell id="8" style="edgeStyle=orthogonalEdgeStyle;html=1;exitX=1;exitY=0.5;exitDx=0;exitDy=0;entryX=0;entryY=0.5;entryDx=0;entryDy=0;fontFamily=仿宋;fontSize=14;fillColor=#fff2cc;strokeColor=#d6b656;" edge="1" parent="1" source="4" target="5">
                    <mxGeometry relative="1" as="geometry">
                        <mxPoint x="-450" y="-20" as="targetPoint"/>
                        <Array as="points">
                            <mxPoint x="-480" y="80"/>
                            <mxPoint x="-480" y="30"/>
                        </Array>
                    </mxGeometry>
                </mxCell>
                <mxCell id="4" value="下单实体CA证书" style="rounded=1;whiteSpace=wrap;html=1;fontFamily=仿宋;fontSize=14;fillColor=#fff2cc;strokeColor=#d6b656;" vertex="1" parent="1">
                    <mxGeometry x="-830" y="50" width="120" height="60" as="geometry"/>
                </mxCell>
                <mxCell id="21" style="edgeStyle=orthogonalEdgeStyle;html=1;exitX=1;exitY=0.5;exitDx=0;exitDy=0;entryX=0;entryY=0.5;entryDx=0;entryDy=0;fontFamily=黑体;fontSize=14;fillColor=#fff2cc;strokeColor=#d6b656;" edge="1" parent="1" source="5" target="20">
                    <mxGeometry relative="1" as="geometry"/>
                </mxCell>
                <mxCell id="5" value="实体CA申领" style="rounded=1;whiteSpace=wrap;html=1;fontFamily=仿宋;fontSize=14;fillColor=#fff2cc;strokeColor=#d6b656;" vertex="1" parent="1">
                    <mxGeometry x="-450" width="120" height="60" as="geometry"/>
                </mxCell>
                <mxCell id="10" value="实体CA办理过程" style="text;html=1;align=center;verticalAlign=middle;resizable=0;points=[];autosize=1;strokeColor=none;fillColor=none;fontFamily=黑体;fontSize=20;" vertex="1" parent="1">
                    <mxGeometry x="-580" y="-100" width="160" height="40" as="geometry"/>
                </mxCell>
                <mxCell id="11" value="" style="rounded=1;whiteSpace=wrap;html=1;strokeColor=none;fillColor=#f5f5f5;fontColor=#333333;" vertex="1" parent="1">
                    <mxGeometry x="-780" y="150" width="540" height="150" as="geometry"/>
                </mxCell>
                <mxCell id="12" style="edgeStyle=none;html=1;exitX=1;exitY=0.5;exitDx=0;exitDy=0;entryX=0;entryY=0.5;entryDx=0;entryDy=0;fontFamily=仿宋;fontSize=14;fillColor=#d5e8d4;strokeColor=#82b366;" edge="1" parent="1" source="13" target="15">
                    <mxGeometry relative="1" as="geometry"/>
                </mxCell>
                <mxCell id="13" value="下单移动CA证书" style="rounded=1;whiteSpace=wrap;html=1;fontFamily=仿宋;fontSize=14;fillColor=#d5e8d4;strokeColor=#82b366;" vertex="1" parent="1">
                    <mxGeometry x="-760" y="200" width="120" height="60" as="geometry"/>
                </mxCell>
                <mxCell id="14" style="edgeStyle=orthogonalEdgeStyle;html=1;exitX=1;exitY=0.5;exitDx=0;exitDy=0;entryX=0;entryY=0.5;entryDx=0;entryDy=0;fontFamily=仿宋;fontSize=14;fillColor=#d5e8d4;strokeColor=#82b366;" edge="1" parent="1" source="15" target="18">
                    <mxGeometry relative="1" as="geometry"/>
                </mxCell>
                <mxCell id="15" value="移动CA申领" style="rounded=1;whiteSpace=wrap;html=1;fontFamily=仿宋;fontSize=14;fillColor=#d5e8d4;strokeColor=#82b366;" vertex="1" parent="1">
                    <mxGeometry x="-570" y="200" width="120" height="60" as="geometry"/>
                </mxCell>
                <mxCell id="18" value="自行录入信息" style="rounded=1;whiteSpace=wrap;html=1;fontFamily=仿宋;fontSize=14;fillColor=#d5e8d4;strokeColor=#82b366;" vertex="1" parent="1">
                    <mxGeometry x="-380" y="200" width="120" height="60" as="geometry"/>
                </mxCell>
                <mxCell id="19" value="移动CA办理过程" style="text;html=1;align=center;verticalAlign=middle;resizable=0;points=[];autosize=1;strokeColor=none;fillColor=none;fontFamily=黑体;fontSize=20;" vertex="1" parent="1">
                    <mxGeometry x="-580" y="150" width="160" height="40" as="geometry"/>
                </mxCell>
                <mxCell id="20" value="运营平台录入信息" style="rounded=1;whiteSpace=wrap;html=1;fontFamily=仿宋;fontSize=14;fillColor=#fff2cc;strokeColor=#d6b656;" vertex="1" parent="1">
                    <mxGeometry x="-280" width="120" height="60" as="geometry"/>
                </mxCell>
            </root>
        </mxGraphModel>
    </diagram>
</mxfile>